<svg width="39" height="39" viewBox="0 0 39 39" fill="none" xmlns="http://www.w3.org/2000/svg">
<path d="M15.0927 14.2422H14.536H10.8247V17.6443H14.8144C15.5257 17.6443 16.1443 17.4587 16.1443 15.8196C16.1443 14.1804 15.0927 14.2422 15.0927 14.2422Z" fill="black"/>
<path d="M15.0927 20.1185H10.8247V24.4484H14.567C14.6288 24.4484 14.7216 24.4484 14.8453 24.4484C15.4639 24.4484 16.6391 24.201 16.6391 22.3453C16.6701 20.1495 15.0927 20.1185 15.0927 20.1185Z" fill="black"/>
<path d="M29.1959 0.0155029H9.7732C4.39175 0.0155029 0 4.40726 0 9.7887V29.2423C0 34.5928 4.39175 38.9846 9.7732 38.9846H29.2268C34.6082 38.9846 39 34.5928 39 29.2114V9.7887C38.9691 4.40726 34.5773 0.0155029 29.1959 0.0155029ZM22.8866 12.3866H29.3814V13.933H22.8866V12.3866ZM19.8557 22.5619C19.8557 27.3866 15.0928 27.5413 15.0928 27.5413H10.701H10.5773H7.42268V11.4588H10.5464H10.6701H15.0619C17.4433 11.4588 19.3299 12.8196 19.3299 15.665C19.3299 18.5103 17.0412 18.665 17.0412 18.665C20.0722 18.6341 19.8557 22.5619 19.8557 22.5619ZM31.5155 22.2835H23.6907C23.6907 25.3763 26.3505 25.1289 26.3505 25.1289C28.8557 25.1289 28.7629 23.5207 28.7629 23.5207H31.4227C31.4227 27.8506 26.2577 27.665 26.2577 27.665C20.0722 27.665 20.4742 21.5722 20.4742 21.5722C20.4742 21.5722 20.4742 15.4485 26.2577 15.4485C32.3505 15.4176 31.5155 22.2835 31.5155 22.2835Z" fill="black"/>
<path d="M26.3196 17.6753C24 17.6753 23.6598 20.1186 23.6598 20.1186H28.6082C28.6082 20.1186 28.6392 17.6753 26.3196 17.6753Z" fill="black"/>
</svg>
