<svg width="49" height="45" viewBox="0 0 49 45" fill="none" xmlns="http://www.w3.org/2000/svg">
<path d="M48.043 32.3299C47.5145 32.3299 47.0859 32.752 47.0859 33.2725V39.7739C47.0859 41.3332 45.798 42.6018 44.2148 42.6018H4.78516C3.26644 42.6018 2.0201 41.434 1.92114 39.9624H14.5787C15.1072 39.9624 15.5358 39.5403 15.5358 39.0197C15.5358 38.4992 15.1072 38.0771 14.5787 38.0771H1.91406V22.7758C2.77606 23.4505 3.86545 23.8551 5.04958 23.8551H8.27363V25.4C8.27363 27.531 10.0339 29.2649 12.1975 29.2649H12.4752C14.6387 29.2649 16.399 27.531 16.399 25.4V23.8551H32.6009V25.4C32.6009 27.531 34.3612 29.2649 36.5247 29.2649H36.8024C38.966 29.2649 40.7263 27.531 40.7263 25.4V23.8551H43.9503C45.1345 23.8551 46.2237 23.4505 47.0858 22.7758V25.7391C47.0858 26.2596 47.5144 26.6817 48.0429 26.6817C48.5713 26.6817 48.9999 26.2596 48.9999 25.7391V13.1911C49 10.5921 46.8534 8.47788 44.2148 8.47788H35.4249V4.90054C35.4249 2.19835 33.193 0 30.4496 0H18.5504C15.807 0 13.5751 2.19835 13.5751 4.90054V8.47788H4.78516C2.14662 8.47788 0 10.5922 0 13.1911V39.7738C0 42.3726 2.14662 44.487 4.78516 44.487H44.2148C46.8534 44.487 49 42.3726 49 39.7738V33.2725C49 32.7519 48.5714 32.3299 48.043 32.3299ZM14.4851 25.3999C14.4851 26.4914 13.5834 27.3795 12.4753 27.3795H12.1976C11.0894 27.3795 10.1878 26.4914 10.1878 25.3999V21.9577H14.4851V25.3999ZM38.8123 25.3999C38.8123 26.4914 37.9107 27.3795 36.8025 27.3795H36.5248C35.4167 27.3795 34.515 26.4914 34.515 25.3999V21.9577H38.8123V25.3999ZM15.4892 4.90054C15.4892 3.2379 16.8625 1.88529 18.5504 1.88529H30.4496C32.1376 1.88529 33.5108 3.23799 33.5108 4.90054V8.47788H31.5968V4.71324C31.5968 4.19271 31.1682 3.77059 30.6397 3.77059H18.3603C17.8318 3.77059 17.4032 4.19271 17.4032 4.71324V8.47798H15.4892V4.90054ZM29.6828 5.65588V8.47798H19.3173V5.65588H29.6828ZM1.91406 13.1911C1.91406 11.6318 3.20204 10.3632 4.78516 10.3632H44.2148C45.798 10.3632 47.0859 11.6318 47.0859 13.1911V18.8813C47.0859 20.5842 45.6794 21.9697 43.9504 21.9697H40.7264V21.2979C40.7264 20.6222 40.1682 20.0724 39.4822 20.0724H33.8451C33.1591 20.0724 32.601 20.6222 32.601 21.2979V21.9697H16.3991V21.2979C16.3991 20.6222 15.841 20.0724 15.155 20.0724H9.51777C8.83177 20.0724 8.27363 20.6222 8.27363 21.2979V21.9697H5.04958C3.32061 21.9698 1.91406 20.5843 1.91406 18.8814V13.1911Z" fill="#4378FF"/>
<path d="M48.7195 28.7412C48.5416 28.5657 48.2947 28.465 48.043 28.465C47.7913 28.465 47.5444 28.5658 47.3663 28.7412C47.1883 28.9166 47.0859 29.1597 47.0859 29.4077C47.0859 29.6556 47.1882 29.8988 47.3663 30.074C47.5444 30.2493 47.7913 30.3503 48.043 30.3503C48.2947 30.3503 48.5416 30.2494 48.7195 30.074C48.8976 29.8987 49 29.6556 49 29.4077C49 29.1597 48.8976 28.9165 48.7195 28.7412Z" fill="#4378FF"/>
<path d="M18.3586 38.077H18.3433C17.8148 38.077 17.3862 38.4992 17.3862 39.0197C17.3862 39.5403 17.8148 39.9624 18.3433 39.9624H18.3586C18.887 39.9624 19.3156 39.5403 19.3156 39.0197C19.3156 38.4991 18.887 38.077 18.3586 38.077Z" fill="#4378FF"/>
</svg>
