<svg width="44" height="45" viewBox="0 0 44 45" fill="none" xmlns="http://www.w3.org/2000/svg">
<g clip-path="url(#clip0_288_207)">
<path d="M20.3032 30.5214C20.6392 30.1777 20.6392 29.6215 20.3032 29.2779C19.9668 28.9352 19.4219 28.9352 19.0853 29.2779C18.7496 29.6215 18.7496 30.1777 19.0853 30.5214C19.4219 30.864 19.9668 30.864 20.3032 30.5214Z" fill="#4378FF"/>
<path d="M16.2266 9.66523C16.2266 14.9946 20.4743 19.3308 25.6955 19.3308C30.9167 19.3308 35.1644 14.9946 35.1644 9.66523C35.1644 4.33583 30.9167 0 25.6955 0C20.4743 0 16.2266 4.33583 16.2266 9.66523ZM33.443 9.66523C33.443 14.0258 29.9675 17.5733 25.6955 17.5733C21.4235 17.5733 17.948 14.0258 17.948 9.66523C17.948 5.30503 21.4235 1.75747 25.6955 1.75747C29.9675 1.75747 33.443 5.30503 33.443 9.66523Z" fill="#4378FF"/>
<path d="M9.95815 44.7401C10.2918 45.0835 10.835 45.0872 11.173 44.7473L15.3465 40.5506C16.0555 39.8268 16.2711 38.7553 15.9593 37.8239L16.857 36.9402C17.3404 36.4636 17.9767 36.201 18.6494 36.201H30.0931C32.1233 36.201 34.0422 35.4052 35.4969 33.9601C35.5568 33.9007 35.0425 34.5191 43.3039 24.4405C44.5292 22.9608 44.3459 20.7388 42.8949 19.4867C41.453 18.2462 39.2929 18.4244 38.0643 19.8787L32.9847 25.2078C32.3433 24.402 31.3652 23.8997 30.3084 23.8997H20.7093C19.3433 23.3164 17.894 23.0212 16.3986 23.0212C12.2534 23.0212 8.63394 24.9754 6.69152 28.6393C5.87318 28.481 5.01011 28.7337 4.3892 29.3675L0.294139 33.5598C-0.0401933 33.9021 -0.040866 34.4559 0.292793 34.7992L9.95815 44.7401ZM16.3983 24.7783C17.7167 24.7783 18.9915 25.0492 20.1879 25.5834C20.2969 25.6322 20.4143 25.6572 20.533 25.6572H30.3084C31.2417 25.6572 32.0301 26.4342 32.0301 27.4143C32.0301 28.3835 31.2579 29.1718 30.3084 29.1718H23.285C22.8098 29.1718 22.4243 29.5653 22.4243 30.0504C22.4243 30.5358 22.8098 30.9289 23.285 30.9289H30.3084C32.207 30.9289 33.7516 29.3524 33.7516 27.4143C33.7516 27.2598 33.7408 27.1067 33.7213 26.955C38.635 21.7993 39.3279 21.0749 39.3575 21.0388C39.971 20.2997 41.0601 20.2059 41.7846 20.8294C42.5098 21.4553 42.6016 22.5663 41.9864 23.3096L34.2655 32.731C33.1381 33.8359 31.6578 34.4439 30.0931 34.4439H18.6494C17.5281 34.4439 16.4665 34.8816 15.6613 35.6757L14.9297 36.3964L8.18592 29.5131C9.76206 26.4949 12.7196 24.7783 16.3983 24.7783ZM5.60746 30.6093C5.89134 30.3195 6.32725 30.2674 6.67336 30.4857C6.82236 30.5784 6.39452 30.1808 14.1292 38.0649C14.4733 38.4161 14.4548 38.9757 14.1339 39.3033L10.576 42.881L2.11783 34.1816L5.60746 30.6093Z" fill="#4378FF"/>
<path d="M24.6625 4.39349V5.42312C23.6606 5.78567 22.9408 6.76242 22.9408 7.90809C22.9408 9.36138 24.0992 10.5441 25.5233 10.5441C25.9979 10.5441 26.384 10.9383 26.384 11.4227C26.384 11.9071 25.9979 12.3013 25.5233 12.3013C25.1556 12.3013 24.7584 12.0654 24.4056 11.6366C24.0995 11.2651 23.5566 11.2174 23.1927 11.5295C22.8288 11.8419 22.7817 12.396 23.0878 12.7675C23.5479 13.3261 24.0891 13.7154 24.6625 13.9118V14.9373C24.6625 15.4227 25.048 15.8158 25.5233 15.8158C25.9985 15.8158 26.384 15.4227 26.384 14.9373V13.9077C27.386 13.5448 28.1058 12.568 28.1058 11.4227C28.1058 9.96906 26.9474 8.78665 25.5233 8.78665C25.0487 8.78665 24.6625 8.39252 24.6625 7.90809C24.6625 7.42366 25.0487 7.02918 25.5233 7.02918C25.8283 7.02918 26.1502 7.18814 26.4543 7.48855C26.796 7.82604 27.3409 7.81677 27.6715 7.46829C28.0022 7.11948 27.9931 6.56329 27.6517 6.22581C27.2148 5.79425 26.7775 5.55015 26.384 5.41694V4.39349C26.384 3.90804 25.9985 3.51459 25.5233 3.51459C25.048 3.51459 24.6625 3.90804 24.6625 4.39349Z" fill="#4378FF"/>
</g>
<defs>
<clipPath id="clip0_288_207">
<rect width="44" height="45" fill="white"/>
</clipPath>
</defs>
</svg>
