<svg width="18" height="17" viewBox="0 0 18 17" fill="none" xmlns="http://www.w3.org/2000/svg">
<path d="M1.61433 1.17976C0.283067 2.56255 0.555531 4.03145 0.555531 8.49393C0.555531 12.1997 -0.0910402 15.9147 3.29287 16.7892C4.34955 17.061 13.7121 17.061 14.7674 16.7878C16.1763 16.4243 17.3226 15.2815 17.4793 13.2889C17.5012 13.0107 17.5012 3.98204 17.4786 3.69829C17.312 1.57575 16.0055 0.352492 14.2839 0.104734C13.8893 0.0475586 13.8102 0.0306179 11.7858 0.0270886C4.60507 0.0306179 3.03099 -0.289138 1.61433 1.17976Z" fill="#4267B2"/>
<path d="M11.3848 16.9762V10.4467H13.5707L13.8981 7.89098H11.3848V6.26324C11.3848 5.52498 11.5883 5.02195 12.6396 5.02195H13.9718V2.74226C13.74 2.71122 12.9448 2.64178 12.0194 2.64178C10.0874 2.64178 8.76507 3.82897 8.76507 6.01011V7.89098H6.5874V10.4467H8.76507V17L11.3848 16.9762Z" fill="white"/>
</svg>
