<svg width="56" height="56" viewBox="0 0 56 56" fill="none" xmlns="http://www.w3.org/2000/svg">
<path d="M28 0C22.4621 0 17.0486 1.64217 12.444 4.71885C7.83946 7.79552 4.25064 12.1685 2.13138 17.2848C0.0121318 22.4012 -0.542361 28.031 0.538024 33.4625C1.61841 38.894 4.28515 43.8831 8.20102 47.799C12.1169 51.7148 17.106 54.3816 22.5375 55.4619C27.9689 56.5423 33.5988 55.9878 38.7151 53.8686C43.8314 51.7493 48.2044 48.1605 51.2811 43.5559C54.3578 38.9514 56 33.5378 56 28C56 20.5739 53.05 13.452 47.799 8.201C42.548 2.94999 35.426 0 28 0ZM35.9653 18.2221C35.9653 18.7489 35.7442 18.9589 35.2284 18.9589C34.2374 18.9589 33.2463 18.9589 32.2589 18.9995C31.2716 19.04 30.7337 19.4895 30.7337 20.521C30.7116 21.6263 30.7337 22.7095 30.7337 23.8368H34.9742C35.5784 23.8368 35.7847 24.0431 35.7847 24.651C35.7847 26.1247 35.7847 27.6058 35.7847 29.0942C35.7847 29.6947 35.5931 29.8826 34.9853 29.8863H30.6968V41.8747C30.6968 42.5158 30.4979 42.7184 29.8642 42.7184H25.2516C24.6953 42.7184 24.4779 42.501 24.4779 41.9447V29.9047H20.8158C20.2411 29.9047 20.0347 29.6947 20.0347 29.1163C20.0347 27.6254 20.0347 26.1358 20.0347 24.6474C20.0347 24.0726 20.2521 23.8552 20.8195 23.8552H24.4779V20.6316C24.4345 19.1835 24.7819 17.7505 25.4837 16.4831C26.2132 15.2036 27.3822 14.2323 28.7737 13.7495C29.6767 13.4209 30.6312 13.2562 31.5921 13.2631H35.2137C35.7331 13.2631 35.9505 13.4916 35.9505 14C35.9689 15.4184 35.9689 16.8221 35.9653 18.2221Z" fill="white"/>
</svg>
