<svg width="39" height="39" viewBox="0 0 39 39" fill="none" xmlns="http://www.w3.org/2000/svg">
<g clip-path="url(#clip0_517_330)">
<path d="M14.0666 31.3574C13.7955 31.4079 13.677 31.5352 13.711 31.7381C13.7448 31.9411 13.8971 32.009 14.1679 31.9411C14.4391 31.8735 14.5575 31.7548 14.5234 31.5857C14.4898 31.3996 14.3374 31.3233 14.0666 31.3574Z" fill="black"/>
<path d="M12.6193 31.5608C12.3484 31.5608 12.213 31.6534 12.213 31.8399C12.213 32.06 12.357 32.1528 12.6446 32.119C12.9155 32.119 13.051 32.0259 13.051 31.8399C13.051 31.6202 12.907 31.5267 12.6193 31.5608Z" fill="black"/>
<path d="M10.6389 31.484C10.5713 31.6703 10.6814 31.7969 10.9689 31.8649C11.2228 31.9661 11.3837 31.9155 11.4513 31.7125C11.5022 31.5266 11.3921 31.3915 11.1213 31.3063C10.8673 31.2388 10.7066 31.2972 10.6389 31.484Z" fill="black"/>
<path d="M36.8544 2.14531C35.424 0.715193 33.7021 0 31.6874 0H7.31246C5.29832 0 3.57579 0.715193 2.14531 2.14531C0.715193 3.5757 0 5.29823 0 7.31245V31.6877C0 33.702 0.715193 35.4244 2.14531 36.8545C3.5757 38.2849 5.29832 39.0001 7.31246 39.0001H12.9999C13.372 39.0001 13.6515 38.9873 13.8377 38.9624C14.0237 38.9368 14.2098 38.8267 14.3961 38.6318C14.5825 38.4373 14.6753 38.1537 14.6753 37.7814C14.6753 37.7309 14.6709 37.1548 14.6625 36.0546C14.6539 34.9541 14.6497 34.0825 14.6497 33.4391L14.0657 33.5408C13.6933 33.6084 13.2236 33.6382 12.6565 33.6296C12.0896 33.6211 11.5013 33.562 10.892 33.4519C10.2823 33.3418 9.71549 33.0879 9.1907 32.6905C8.66618 32.2924 8.29382 31.772 8.07372 31.1289L7.81973 30.5446C7.65049 30.1557 7.38405 29.7238 7.02005 29.2503C6.65605 28.7761 6.28796 28.4544 5.9156 28.2852L5.73782 28.1582C5.61945 28.0736 5.50944 27.9716 5.40779 27.8532C5.30632 27.7345 5.2302 27.6159 5.17942 27.4978C5.12863 27.379 5.17079 27.2817 5.30632 27.2053C5.44185 27.1292 5.68704 27.0915 6.04268 27.0915L6.55031 27.1675C6.88896 27.2351 7.30765 27.4381 7.80727 27.7768C8.30654 28.1153 8.71696 28.5553 9.03863 29.0968C9.42815 29.791 9.89745 30.3197 10.4479 30.6837C10.9978 31.048 11.5523 31.23 12.1108 31.23C12.6693 31.23 13.1517 31.1876 13.5581 31.1033C13.9641 31.0185 14.345 30.8912 14.7006 30.722C14.8529 29.588 15.2677 28.7158 15.9446 28.1065C14.9798 28.0048 14.1124 27.8527 13.342 27.6494C12.572 27.4461 11.7763 27.1162 10.9555 26.659C10.1343 26.2019 9.45305 25.6352 8.91137 24.9578C8.36977 24.2803 7.92529 23.3917 7.57854 22.2918C7.23162 21.1912 7.05811 19.9215 7.05811 18.4829C7.05811 16.4349 7.72697 14.6911 9.06415 13.2524C8.43771 11.7121 8.49685 9.98575 9.24175 8.07282C9.73266 7.92039 10.4607 8.03476 11.4254 8.41566C12.3903 8.79682 13.0968 9.12276 13.5455 9.3932C13.9943 9.66373 14.3538 9.89246 14.6247 10.0789C16.1993 9.63874 17.8242 9.41872 19.4998 9.41872C21.1754 9.41872 22.8005 9.63874 24.3752 10.0789L25.34 9.4695C26.0004 9.06308 26.7789 8.69072 27.6762 8.35234C28.5733 8.01386 29.2587 7.92066 29.7329 8.07309C30.4943 9.98602 30.5625 11.7124 29.9356 13.2526C31.2728 14.6914 31.9418 16.4351 31.9418 18.4831C31.9418 19.9221 31.7683 21.196 31.4214 22.3045C31.0747 23.4132 30.6264 24.3022 30.0758 24.9707C29.5259 25.6394 28.8402 26.2018 28.0194 26.6592C27.1983 27.1161 26.4027 27.4465 25.6324 27.6492C24.8622 27.8525 23.9948 28.0053 23.03 28.1069C23.9096 28.8684 24.3497 30.0699 24.3497 31.7121V37.7806C24.3497 38.0685 24.3916 38.3011 24.4763 38.4788C24.5615 38.6565 24.6967 38.7789 24.8828 38.8471C25.0697 38.9147 25.234 38.9569 25.3782 38.9737C25.5225 38.9907 25.7294 38.9993 26.0003 38.9993H31.6878C33.7019 38.9993 35.4246 38.2841 36.8543 36.8537C38.2847 35.4233 38.9999 33.7007 38.9999 31.6866V7.31245C38.9997 5.29823 38.2845 3.57543 36.8544 2.14531Z" fill="black"/>
<path d="M7.71866 28.3867C7.60029 28.4711 7.61719 28.6065 7.76953 28.7927C7.93904 28.9619 8.0743 28.9874 8.17595 28.8688C8.29432 28.7844 8.27742 28.649 8.12482 28.4624C7.95567 28.3104 7.82031 28.2848 7.71866 28.3867Z" fill="black"/>
<path d="M6.88106 27.7519C6.83037 27.8707 6.88959 27.9723 7.05883 28.0566C7.1941 28.1416 7.30446 28.1248 7.38886 28.0061C7.43955 27.8874 7.38032 27.7857 7.21108 27.7008C7.04185 27.6499 6.93184 27.667 6.88106 27.7519Z" fill="black"/>
<path d="M8.50599 29.3771C8.35347 29.4614 8.35347 29.6142 8.50599 29.834C8.65833 30.0543 8.80196 30.1134 8.93758 30.0117C9.09001 29.893 9.09001 29.7322 8.93758 29.529C8.80231 29.3095 8.65833 29.2581 8.50599 29.3771Z" fill="black"/>
<path d="M9.39489 30.5192C9.24246 30.655 9.27607 30.8151 9.49645 31.002C9.6993 31.2046 9.86863 31.2302 10.0041 31.0775C10.1396 30.9424 10.1057 30.7817 9.90251 30.5955C9.69966 30.3927 9.53033 30.3671 9.39489 30.5192Z" fill="black"/>
</g>
<defs>
<clipPath id="clip0_517_330">
<rect width="39" height="39" fill="white"/>
</clipPath>
</defs>
</svg>
