<svg width="17" height="17" viewBox="0 0 17 17" fill="none" xmlns="http://www.w3.org/2000/svg">
<path d="M1.10822 1.17976C-0.223036 2.56255 0.049427 4.03145 0.049427 8.49393C0.049427 12.1997 -0.597144 15.9147 2.78676 16.7892C3.84344 17.061 13.206 17.061 14.2613 16.7878C15.6702 16.4243 16.8165 15.2815 16.9732 13.2889C16.9951 13.0107 16.9951 3.98204 16.9725 3.69829C16.8059 1.57575 15.4994 0.352492 13.7778 0.104734C13.3832 0.0475586 13.3041 0.0306179 11.2797 0.0270886C4.09896 0.0306179 2.52489 -0.289138 1.10822 1.17976Z" fill="url(#paint0_linear_534_34)"/>
<path d="M8.51847 2.24294C5.95548 2.24294 3.52166 2.01495 2.59204 4.40077C2.20805 5.38615 2.26381 6.66588 2.26381 8.4983C2.26381 10.1063 2.21228 11.6175 2.59204 12.5951C3.51954 14.9824 5.97312 14.7537 8.51706 14.7537C10.9713 14.7537 13.5019 15.0092 14.4428 12.5951C14.8275 11.5999 14.771 10.3392 14.771 8.4983C14.771 6.05461 14.9058 4.477 13.7207 3.29256C12.5207 2.0926 10.8979 2.24294 8.51564 2.24294H8.51847ZM7.95801 3.37021C13.3042 3.36174 13.9847 2.7674 13.6092 11.0239C13.4757 13.944 11.2523 13.6236 8.51917 13.6236C3.53578 13.6236 3.39249 13.481 3.39249 8.49548C3.39249 3.45209 3.78777 3.37303 7.95801 3.3688V3.37021ZM11.8572 4.40853C11.4429 4.40853 11.1069 4.74452 11.1069 5.15886C11.1069 5.57321 11.4429 5.9092 11.8572 5.9092C12.2715 5.9092 12.6075 5.57321 12.6075 5.15886C12.6075 4.74452 12.2715 4.40853 11.8572 4.40853ZM8.51847 5.28592C6.74463 5.28592 5.30679 6.72447 5.30679 8.4983C5.30679 10.2721 6.74463 11.71 8.51847 11.71C10.2923 11.71 11.7294 10.2721 11.7294 8.4983C11.7294 6.72447 10.2923 5.28592 8.51847 5.28592ZM8.51847 6.41318C11.2749 6.41318 11.2784 10.5834 8.51847 10.5834C5.76278 10.5834 5.75854 6.41318 8.51847 6.41318Z" fill="white"/>
<defs>
<linearGradient id="paint0_linear_534_34" x1="1.14071" y1="15.8858" x2="16.8853" y2="2.25903" gradientUnits="userSpaceOnUse">
<stop stop-color="#FFDD55"/>
<stop offset="0.5" stop-color="#FF543E"/>
<stop offset="1" stop-color="#C837AB"/>
</linearGradient>
</defs>
</svg>
