<svg width="57" height="56" viewBox="0 0 57 56" fill="none" xmlns="http://www.w3.org/2000/svg">
<path d="M33.4707 28C33.4707 30.96 31.0713 33.3594 28.1113 33.3594C25.1514 33.3594 22.752 30.96 22.752 28C22.752 25.04 25.1514 22.6406 28.1113 22.6406C31.0713 22.6406 33.4707 25.04 33.4707 28Z" fill="white"/>
<path d="M40.6448 18.5178C40.3871 17.8196 39.9761 17.1877 39.4421 16.6691C38.9234 16.135 38.2919 15.724 37.5934 15.4664C37.0268 15.2463 36.1758 14.9844 34.6082 14.9131C32.9125 14.8358 32.404 14.8191 28.1111 14.8191C23.8177 14.8191 23.3093 14.8353 21.6139 14.9127C20.0464 14.9844 19.1949 15.2463 18.6288 15.4664C17.9302 15.724 17.2983 16.135 16.7801 16.6691C16.246 17.1877 15.835 17.8192 15.577 18.5178C15.3569 19.0843 15.095 19.9358 15.0237 21.5034C14.9464 23.1987 14.9297 23.7071 14.9297 28.0005C14.9297 32.2935 14.9464 32.8019 15.0237 34.4976C15.095 36.0652 15.3569 36.9163 15.577 37.4828C15.835 38.1813 16.2456 38.8128 16.7797 39.3315C17.2983 39.8655 17.9298 40.2765 18.6284 40.5342C19.1949 40.7546 20.0464 41.0165 21.6139 41.0879C23.3093 41.1652 23.8173 41.1814 28.1107 41.1814C32.4045 41.1814 32.9129 41.1652 34.6078 41.0879C36.1753 41.0165 37.0268 40.7546 37.5934 40.5342C38.9956 39.9933 40.1039 38.885 40.6448 37.4828C40.8648 36.9163 41.1267 36.0652 41.1985 34.4976C41.2758 32.8019 41.292 32.2935 41.292 28.0005C41.292 23.7071 41.2758 23.1987 41.1985 21.5034C41.1271 19.9358 40.8652 19.0843 40.6448 18.5178V18.5178ZM28.1111 36.2562C23.5511 36.2562 19.8546 32.5601 19.8546 28.0001C19.8546 23.4401 23.5511 19.744 28.1111 19.744C32.6706 19.744 36.3672 23.4401 36.3672 28.0001C36.3672 32.5601 32.6706 36.2562 28.1111 36.2562ZM36.6936 21.347C35.628 21.347 34.7642 20.4831 34.7642 19.4175C34.7642 18.352 35.628 17.4881 36.6936 17.4881C37.7591 17.4881 38.623 18.352 38.623 19.4175C38.6226 20.4831 37.7591 21.347 36.6936 21.347Z" fill="white"/>
<path d="M28.1113 0C12.6497 0 0.111328 12.5384 0.111328 28C0.111328 43.4616 12.6497 56 28.1113 56C43.5729 56 56.1113 43.4616 56.1113 28C56.1113 12.5384 43.5729 0 28.1113 0ZM44.0924 34.6287C44.0147 36.3403 43.7425 37.5088 43.3452 38.5316C42.5099 40.6913 40.8027 42.3986 38.6429 43.2339C37.6205 43.6312 36.4516 43.9029 34.7405 43.9811C33.0259 44.0593 32.4782 44.0781 28.1117 44.0781C23.7449 44.0781 23.1976 44.0593 21.4826 43.9811C19.7715 43.9029 18.6025 43.6312 17.5801 43.2339C16.5069 42.8301 15.5353 42.1974 14.7321 41.3792C13.9144 40.5764 13.2816 39.6044 12.8779 38.5316C12.4805 37.5092 12.2084 36.3403 12.1306 34.6291C12.0516 32.9142 12.0332 32.3664 12.0332 28C12.0332 23.6335 12.0516 23.0858 12.1302 21.3713C12.2079 19.6597 12.4797 18.4912 12.877 17.4684C13.2808 16.3956 13.9139 15.4236 14.7321 14.6208C15.5349 13.8026 16.5069 13.1699 17.5797 12.7661C18.6025 12.3688 19.771 12.097 21.4826 12.0189C23.1971 11.9407 23.7449 11.9219 28.1113 11.9219C32.4778 11.9219 33.0255 11.9407 34.74 12.0193C36.4516 12.097 37.6201 12.3688 38.6429 12.7657C39.7157 13.1694 40.6877 13.8026 41.4909 14.6208C42.3087 15.424 42.9419 16.3956 43.3452 17.4684C43.743 18.4912 44.0147 19.6597 44.0929 21.3713C44.1711 23.0858 44.1894 23.6335 44.1894 28C44.1894 32.3664 44.1711 32.9142 44.0924 34.6287V34.6287Z" fill="white"/>
</svg>
