<svg width="45" height="45" viewBox="0 0 45 45" fill="none" xmlns="http://www.w3.org/2000/svg">
<path d="M36.3872 13.0737C36.8725 13.0737 37.2661 12.6802 37.2661 12.1948V2.63672C37.2661 1.18283 36.0833 0 34.6294 0H2.63721C1.18332 0 0.000488281 1.18283 0.000488281 2.63672V42.3633C0.000488281 43.8172 1.18332 45 2.63721 45H34.6294C36.0833 45 37.2661 43.8172 37.2661 42.3633V35.8882C37.2661 35.4028 36.8725 35.0093 36.3872 35.0093C35.9019 35.0093 35.5083 35.4028 35.5083 35.8882V42.3633C35.5083 42.8479 35.114 43.2422 34.6294 43.2422H2.63721C2.15258 43.2422 1.7583 42.8479 1.7583 42.3633V2.63672C1.7583 2.15209 2.15258 1.75781 2.63721 1.75781H34.6294C35.114 1.75781 35.5083 2.15209 35.5083 2.63672V12.1948C35.5083 12.6802 35.9019 13.0737 36.3872 13.0737Z" fill="#4378FF"/>
<path d="M18.6333 4.74609C14.1747 4.74609 10.5474 8.37343 10.5474 12.832C10.5474 15.145 11.5238 17.234 13.0858 18.7092C13.1151 18.7405 13.1462 18.7701 13.1802 18.7971C14.6191 20.1136 16.5339 20.9179 18.6332 20.9179C20.7325 20.9179 22.6474 20.1135 24.0862 18.7971C24.1202 18.7701 24.1513 18.7404 24.1806 18.7092C25.7428 17.234 26.7192 15.145 26.7192 12.832C26.7192 8.37343 23.0919 4.74609 18.6333 4.74609ZM18.6333 19.1602C17.1981 19.1602 15.8736 18.6792 14.8109 17.871C15.5833 16.5012 17.0248 15.6445 18.6333 15.6445C20.2418 15.6445 21.6833 16.5012 22.4558 17.871C21.3929 18.6792 20.0685 19.1602 18.6333 19.1602ZM17.2271 12.4805V11.9092C17.2271 11.1338 17.8579 10.5029 18.6333 10.5029C19.4087 10.5029 20.0396 11.1338 20.0396 11.9092V12.4805C20.0396 13.2558 19.4087 13.8867 18.6333 13.8867C17.8579 13.8867 17.2271 13.2558 17.2271 12.4805ZM23.7257 16.5835C23.0775 15.6221 22.1792 14.8744 21.1362 14.4128C21.5501 13.8778 21.7974 13.2077 21.7974 12.4805V11.9092C21.7974 10.1645 20.378 8.74512 18.6333 8.74512C16.8886 8.74512 15.4692 10.1645 15.4692 11.9092V12.4805C15.4692 13.2077 15.7165 13.8778 16.1304 14.4128C15.0874 14.8744 14.1891 15.6221 13.5409 16.5835C12.7649 15.5329 12.3052 14.2354 12.3052 12.832C12.3052 9.34269 15.144 6.50391 18.6333 6.50391C22.1226 6.50391 24.9614 9.34269 24.9614 12.832C24.9614 14.2354 24.5017 15.5329 23.7257 16.5835Z" fill="#4378FF"/>
<path d="M23.3794 38.4961H18.6333C18.148 38.4961 17.7544 38.8896 17.7544 39.375C17.7544 39.8604 18.148 40.2539 18.6333 40.2539H23.3794C23.8647 40.2539 24.2583 39.8604 24.2583 39.375C24.2583 38.8896 23.8647 38.4961 23.3794 38.4961Z" fill="#4378FF"/>
<path d="M23.3794 33.5742H10.8989C10.4136 33.5742 10.02 33.9677 10.02 34.4531C10.02 34.9385 10.4136 35.332 10.8989 35.332H23.3794C23.8647 35.332 24.2583 34.9385 24.2583 34.4531C24.2583 33.9677 23.8647 33.5742 23.3794 33.5742Z" fill="#4378FF"/>
<path d="M23.3794 28.6523H10.8989C10.4136 28.6523 10.02 29.0458 10.02 29.5312C10.02 30.0167 10.4136 30.4102 10.8989 30.4102H23.3794C23.8647 30.4102 24.2583 30.0167 24.2583 29.5312C24.2583 29.0458 23.8647 28.6523 23.3794 28.6523Z" fill="#4378FF"/>
<path d="M7.76671 23.988C7.60332 23.8245 7.37656 23.7305 7.14453 23.7305C6.91329 23.7305 6.68653 23.8245 6.52314 23.988C6.35967 24.1515 6.26562 24.3782 6.26562 24.6094C6.26562 24.8405 6.35958 25.0673 6.52314 25.2308C6.6875 25.3942 6.91329 25.4883 7.14453 25.4883C7.37656 25.4883 7.60244 25.3942 7.76671 25.2308C7.93018 25.0673 8.02432 24.8405 8.02432 24.6094C8.02432 24.3782 7.93027 24.1515 7.76671 23.988Z" fill="#4378FF"/>
<path d="M7.76671 28.9099C7.60244 28.7464 7.37656 28.6523 7.14453 28.6523C6.91329 28.6523 6.6875 28.7464 6.52314 28.9099C6.35967 29.0733 6.26562 29.3001 6.26562 29.5312C6.26562 29.7624 6.35958 29.9892 6.52314 30.1526C6.6875 30.3161 6.91329 30.4102 7.14453 30.4102C7.37656 30.4102 7.60244 30.3161 7.76671 30.1526C7.93018 29.9892 8.02432 29.7624 8.02432 29.5312C8.02432 29.3001 7.93027 29.0733 7.76671 28.9099Z" fill="#4378FF"/>
<path d="M7.76671 33.8317C7.60244 33.6683 7.37656 33.5742 7.14453 33.5742C6.91329 33.5742 6.6875 33.6683 6.52314 33.8317C6.35967 33.9952 6.26562 34.222 6.26562 34.4531C6.26562 34.6843 6.35958 34.911 6.52314 35.0745C6.68653 35.238 6.91329 35.332 7.14453 35.332C7.37656 35.332 7.60332 35.238 7.76671 35.0745C7.93018 34.911 8.02432 34.6843 8.02432 34.4531C8.02432 34.222 7.93027 33.9952 7.76671 33.8317Z" fill="#4378FF"/>
<path d="M23.3794 23.7305H10.8989C10.4136 23.7305 10.02 24.124 10.02 24.6094C10.02 25.0948 10.4136 25.4883 10.8989 25.4883H23.3794C23.8647 25.4883 24.2583 25.0948 24.2583 24.6094C24.2583 24.124 23.8647 23.7305 23.3794 23.7305Z" fill="#4378FF"/>
<path d="M43.1544 11.4539C42.3006 10.9609 41.3058 10.83 40.3533 11.0851C39.4009 11.3403 38.6048 11.9512 38.1119 12.805L27.0516 31.9619C26.991 32.067 26.9527 32.1834 26.9392 32.3039L26.1607 39.2775C26.122 39.6245 26.2924 39.9616 26.5947 40.1362C26.7312 40.215 26.8828 40.254 27.0341 40.254C27.2179 40.254 27.4011 40.1964 27.5554 40.0828L33.2053 35.9217C33.303 35.8498 33.3847 35.7585 33.4453 35.6534L44.5055 16.4965C45.5233 14.7338 44.9172 12.4717 43.1544 11.4539ZM28.1305 37.476L28.5371 33.8345L31.0808 35.3032L28.1305 37.476ZM32.3624 34.0133L29.0134 32.0797L37.889 16.7068L41.2381 18.6404L32.3624 34.0133ZM42.9832 15.6175L42.1169 17.1181L38.7678 15.1845L39.6342 13.6839C39.8924 13.2367 40.3093 12.9167 40.8082 12.7831C41.3072 12.6493 41.8283 12.718 42.2754 12.9762C42.7227 13.2345 43.0426 13.6514 43.1763 14.1503C43.31 14.6492 43.2415 15.1703 42.9832 15.6175Z" fill="#4378FF"/>
</svg>
