<svg width="1268" height="137" viewBox="0 0 1268 137" fill="none" xmlns="http://www.w3.org/2000/svg">
<g style="mix-blend-mode:darken">
<path d="M67.6 77.6C67.6 86.7 64.25 94.1 57.55 99.8C50.85 105.4 41.75 108.2 30.25 108.2C18.75 108.2 9.25 106.1 1.75 101.9V78.65C10.85 85.25 20.55 88.55 30.85 88.55C34.35 88.55 37.25 87.65 39.55 85.85C41.85 83.95 43 81.5 43 78.5C43 76.3 42.45 74.65 41.35 73.55C40.25 72.45 39.3 71.65 38.5 71.15C37.8 70.55 36.7 69.9 35.2 69.2C33.8 68.4 32.6 67.75 31.6 67.25C28.5 65.75 25.45 64.35 22.45 63.05C15.95 60.05 10.7 56.35 6.7 51.95C2.8 47.55 0.85 41.35 0.85 33.35C0.85 25.35 4.05 18.7 10.45 13.4C16.85 8 25.4 5.3 36.1 5.3C46.8 5.3 55.8 6.99999 63.1 10.4V32C55 27.3 46.6 24.95 37.9 24.95C34 24.95 31 25.75 28.9 27.35C26.9 28.95 25.9 31 25.9 33.5C25.9 36 27.15 38.25 29.65 40.25C32.15 42.15 35.4 44 39.4 45.8C43.5 47.6 46.55 49.05 48.55 50.15C50.65 51.15 53 52.6 55.6 54.5C58.3 56.3 60.4 58.2 61.9 60.2C65.7 65.2 67.6 71 67.6 77.6ZM111.801 46.85C108.301 46.85 105.201 48.15 102.501 50.75C99.8008 53.25 98.0008 57 97.1008 62H123.501V60.2C122.801 51.3 118.901 46.85 111.801 46.85ZM139.251 102.65C134.051 106.05 125.651 107.75 114.051 107.75C102.451 107.75 93.1508 104.15 86.1508 96.95C79.2508 89.65 75.8008 80.15 75.8008 68.45C75.8008 56.65 79.1508 47.35 85.8508 40.55C92.6508 33.65 101.051 30.2 111.051 30.2C121.151 30.2 129.151 33.2 135.051 39.2C140.951 45.1 143.901 53.95 143.901 65.75C143.901 68.05 143.501 72 142.701 77.6H98.0008C99.5008 81.8 102.101 85.05 105.801 87.35C109.501 89.65 113.951 90.8 119.151 90.8C126.851 90.8 133.551 88.65 139.251 84.35V102.65ZM227.781 107H205.881V61.7C205.881 57.2 204.831 53.8 202.731 51.5C200.631 49.1 197.631 47.9 193.731 47.9C189.831 47.9 186.531 49.5 183.831 52.7C181.231 55.8 179.931 60.5 179.931 66.8V107H158.031V30.95H179.931V43.85C181.831 39.65 184.731 36.35 188.631 33.95C192.631 31.45 197.381 30.2 202.881 30.2C210.681 30.2 216.781 32.55 221.181 37.25C225.581 41.85 227.781 48.65 227.781 57.65V107ZM317.193 107H295.293V95.15C290.193 103.65 282.643 107.9 272.643 107.9C262.643 107.9 254.643 104.05 248.643 96.35C242.743 88.65 239.793 79.15 239.793 67.85C239.793 56.45 242.893 47.3 249.093 40.4C255.293 33.5 263.243 30.05 272.943 30.05C282.643 30.05 290.093 34.25 295.293 42.65V0.949997H317.193V107ZM278.343 48.2C273.743 48.2 269.843 50.05 266.643 53.75C263.543 57.45 261.993 62.5 261.993 68.9C261.993 75.2 263.593 80.25 266.793 84.05C269.993 87.75 273.993 89.6 278.793 89.6C283.593 89.6 287.543 87.65 290.643 83.75C293.743 79.85 295.293 74.7 295.293 68.3C295.293 61.9 293.593 56.95 290.193 53.45C286.893 49.95 282.943 48.2 278.343 48.2ZM438.742 107H416.842V94.85C412.842 103.35 405.142 107.6 393.742 107.6C385.942 107.6 379.842 105.45 375.442 101.15C371.142 96.75 368.992 90.3 368.992 81.8V30.95H390.892V76.85C390.892 85.75 394.792 90.2 402.592 90.2C412.092 90.2 416.842 83.85 416.842 71.15V30.95H438.742V107ZM507.154 84.05C507.154 91.55 504.454 97.35 499.054 101.45C493.654 105.55 486.404 107.6 477.304 107.6C468.304 107.6 460.704 106.05 454.504 102.95V83.45C461.404 88.25 468.704 90.65 476.404 90.65C481.904 90.65 484.654 88.9 484.654 85.4C484.654 83.5 483.554 81.9 481.354 80.6C479.754 79.7 477.604 78.7 474.904 77.6C472.204 76.4 470.354 75.55 469.354 75.05C459.254 70.25 454.204 63.05 454.204 53.45C454.204 46.05 457.004 40.3 462.604 36.2C468.304 32.1 475.204 30.05 483.304 30.05C491.404 30.05 498.054 31.1 503.254 33.2V51.95C497.954 48.85 491.754 47.3 484.654 47.3C482.054 47.3 480.054 47.85 478.654 48.95C477.254 49.95 476.554 51.1 476.554 52.4C476.554 53.6 476.804 54.6 477.304 55.4C477.804 56.2 478.604 56.95 479.704 57.65C480.904 58.35 482.004 59 483.004 59.6C484.104 60.1 485.554 60.75 487.354 61.55C494.154 64.45 499.154 67.7 502.354 71.3C505.554 74.9 507.154 79.15 507.154 84.05ZM574.886 107.45C567.486 107.45 561.686 105.35 557.486 101.15C553.386 96.95 551.336 91.45 551.336 84.65C551.336 77.85 553.986 72.45 559.286 68.45C564.686 64.35 572.636 62.3 583.136 62.3H592.736V57.05C592.736 50.65 588.536 47.45 580.136 47.45C571.836 47.45 564.186 49.75 557.186 54.35V34.7C563.186 31.3 571.686 29.6 582.686 29.6C593.786 29.6 601.986 31.95 607.286 36.65C612.586 41.25 615.236 48.45 615.236 58.25V107H593.786V97.7C590.586 104.2 584.286 107.45 574.886 107.45ZM582.986 92C586.086 92 588.486 91.05 590.186 89.15C591.886 87.25 592.736 84.65 592.736 81.35V75.8H585.686C581.986 75.8 579.136 76.6 577.136 78.2C575.136 79.8 574.136 81.85 574.136 84.35C574.136 89.45 577.086 92 582.986 92ZM778.53 107H756.63V61.85C756.63 57.55 755.78 54.15 754.08 51.65C752.38 49.15 749.88 47.9 746.58 47.9C743.28 47.9 740.28 49.3 737.58 52.1C734.98 54.8 733.68 59.7 733.68 66.8V107H711.78V61.85C711.78 57.55 710.93 54.15 709.23 51.65C707.53 49.15 705.03 47.9 701.73 47.9C698.43 47.9 695.43 49.3 692.73 52.1C690.13 54.8 688.83 59.7 688.83 66.8V107H666.93V30.95H688.83V42.8C693.03 34.4 700.33 30.2 710.73 30.2C721.13 30.2 728.08 35 731.58 44.6C733.28 40.1 736.13 36.6 740.13 34.1C744.13 31.5 748.83 30.2 754.23 30.2C761.73 30.2 767.63 32.6 771.93 37.4C776.33 42.1 778.53 49.05 778.53 58.25V107ZM826.586 46.85C823.086 46.85 819.986 48.15 817.286 50.75C814.586 53.25 812.786 57 811.886 62H838.286V60.2C837.586 51.3 833.686 46.85 826.586 46.85ZM854.036 102.65C848.836 106.05 840.436 107.75 828.836 107.75C817.236 107.75 807.936 104.15 800.936 96.95C794.036 89.65 790.586 80.15 790.586 68.45C790.586 56.65 793.936 47.35 800.636 40.55C807.436 33.65 815.836 30.2 825.836 30.2C835.936 30.2 843.936 33.2 849.836 39.2C855.736 45.1 858.686 53.95 858.686 65.75C858.686 68.05 858.286 72 857.486 77.6H812.786C814.286 81.8 816.886 85.05 820.586 87.35C824.286 89.65 828.736 90.8 833.936 90.8C841.636 90.8 848.336 88.65 854.036 84.35V102.65ZM924.716 84.05C924.716 91.55 922.016 97.35 916.616 101.45C911.216 105.55 903.966 107.6 894.866 107.6C885.866 107.6 878.266 106.05 872.066 102.95V83.45C878.966 88.25 886.266 90.65 893.966 90.65C899.466 90.65 902.216 88.9 902.216 85.4C902.216 83.5 901.116 81.9 898.916 80.6C897.316 79.7 895.166 78.7 892.466 77.6C889.766 76.4 887.916 75.55 886.916 75.05C876.816 70.25 871.766 63.05 871.766 53.45C871.766 46.05 874.566 40.3 880.166 36.2C885.866 32.1 892.766 30.05 900.866 30.05C908.966 30.05 915.616 31.1 920.816 33.2V51.95C915.516 48.85 909.316 47.3 902.216 47.3C899.616 47.3 897.616 47.85 896.216 48.95C894.816 49.95 894.116 51.1 894.116 52.4C894.116 53.6 894.366 54.6 894.866 55.4C895.366 56.2 896.166 56.95 897.266 57.65C898.466 58.35 899.566 59 900.566 59.6C901.666 60.1 903.116 60.75 904.916 61.55C911.716 64.45 916.716 67.7 919.916 71.3C923.116 74.9 924.716 79.15 924.716 84.05ZM988.548 84.05C988.548 91.55 985.848 97.35 980.448 101.45C975.048 105.55 967.798 107.6 958.698 107.6C949.698 107.6 942.098 106.05 935.898 102.95V83.45C942.798 88.25 950.098 90.65 957.798 90.65C963.298 90.65 966.048 88.9 966.048 85.4C966.048 83.5 964.948 81.9 962.748 80.6C961.148 79.7 958.998 78.7 956.298 77.6C953.598 76.4 951.748 75.55 950.748 75.05C940.648 70.25 935.598 63.05 935.598 53.45C935.598 46.05 938.398 40.3 943.998 36.2C949.698 32.1 956.598 30.05 964.698 30.05C972.798 30.05 979.448 31.1 984.648 33.2V51.95C979.348 48.85 973.148 47.3 966.048 47.3C963.448 47.3 961.448 47.85 960.048 48.95C958.648 49.95 957.948 51.1 957.948 52.4C957.948 53.6 958.198 54.6 958.698 55.4C959.198 56.2 959.998 56.95 961.098 57.65C962.298 58.35 963.398 59 964.398 59.6C965.498 60.1 966.948 60.75 968.748 61.55C975.548 64.45 980.548 67.7 983.748 71.3C986.948 74.9 988.548 79.15 988.548 84.05ZM1020.28 107.45C1012.88 107.45 1007.08 105.35 1002.88 101.15C998.78 96.95 996.73 91.45 996.73 84.65C996.73 77.85 999.38 72.45 1004.68 68.45C1010.08 64.35 1018.03 62.3 1028.53 62.3H1038.13V57.05C1038.13 50.65 1033.93 47.45 1025.53 47.45C1017.23 47.45 1009.58 49.75 1002.58 54.35V34.7C1008.58 31.3 1017.08 29.6 1028.08 29.6C1039.18 29.6 1047.38 31.95 1052.68 36.65C1057.98 41.25 1060.63 48.45 1060.63 58.25V107H1039.18V97.7C1035.98 104.2 1029.68 107.45 1020.28 107.45ZM1028.38 92C1031.48 92 1033.88 91.05 1035.58 89.15C1037.28 87.25 1038.13 84.65 1038.13 81.35V75.8H1031.08C1027.38 75.8 1024.53 76.6 1022.53 78.2C1020.53 79.8 1019.53 81.85 1019.53 84.35C1019.53 89.45 1022.48 92 1028.38 92ZM1110.22 48.5C1105.82 48.5 1102.37 50.2 1099.87 53.6C1097.37 57 1096.12 61.8 1096.12 68C1096.12 74.1 1097.32 78.8 1099.72 82.1C1102.12 85.4 1105.62 87.05 1110.22 87.05C1114.82 87.05 1118.42 85.3 1121.02 81.8C1123.72 78.2 1125.07 73.9 1125.07 68.9C1125.07 55.3 1120.12 48.5 1110.22 48.5ZM1146.82 99.65C1146.82 111.85 1143.17 121 1135.87 127.1C1128.57 133.3 1119.47 136.4 1108.57 136.4C1097.77 136.4 1088.37 134.5 1080.37 130.7V108.35C1087.37 113.95 1095.97 116.75 1106.17 116.75C1112.77 116.75 1117.57 115.35 1120.57 112.55C1123.57 109.75 1125.07 105.35 1125.07 99.35V94.25C1120.67 101.05 1113.97 104.45 1104.97 104.45C1095.97 104.45 1088.42 101.35 1082.32 95.15C1076.32 88.95 1073.32 80.1 1073.32 68.6C1073.32 57.1 1076.22 47.85 1082.02 40.85C1087.92 33.75 1095.47 30.2 1104.67 30.2C1113.97 30.2 1120.77 33.8 1125.07 41V30.95H1146.82V99.65ZM1194.82 46.85C1191.32 46.85 1188.22 48.15 1185.52 50.75C1182.82 53.25 1181.02 57 1180.12 62H1206.52V60.2C1205.82 51.3 1201.92 46.85 1194.82 46.85ZM1222.27 102.65C1217.07 106.05 1208.67 107.75 1197.07 107.75C1185.47 107.75 1176.17 104.15 1169.17 96.95C1162.27 89.65 1158.82 80.15 1158.82 68.45C1158.82 56.65 1162.17 47.35 1168.87 40.55C1175.67 33.65 1184.07 30.2 1194.07 30.2C1204.17 30.2 1212.17 33.2 1218.07 39.2C1223.97 45.1 1226.92 53.95 1226.92 65.75C1226.92 68.05 1226.52 72 1225.72 77.6H1181.02C1182.52 81.8 1185.12 85.05 1188.82 87.35C1192.52 89.65 1196.97 90.8 1202.17 90.8C1209.87 90.8 1216.57 88.65 1222.27 84.35V102.65ZM1263.1 84.95C1265.8 87.55 1267.15 90.75 1267.15 94.55C1267.15 98.35 1265.8 101.6 1263.1 104.3C1260.5 106.9 1257.3 108.2 1253.5 108.2C1249.7 108.2 1246.45 106.9 1243.75 104.3C1241.15 101.6 1239.85 98.35 1239.85 94.55C1239.85 90.75 1241.15 87.55 1243.75 84.95C1246.45 82.25 1249.7 80.9 1253.5 80.9C1257.3 80.9 1260.5 82.25 1263.1 84.95ZM1264.15 71.6H1243.3V5.9H1264.15V71.6Z" fill="#C6D6FF"/>
</g>
</svg>
