<svg width="85" height="38" viewBox="0 0 85 38" fill="none" xmlns="http://www.w3.org/2000/svg">
<path d="M3.28027 16.5C1.89956 16.5 0.780273 17.6193 0.780273 19C0.780273 20.3807 1.89956 21.5 3.28027 21.5L3.28027 16.5ZM83.7121 20.7678C84.6884 19.7915 84.6884 18.2085 83.7121 17.2322L67.8022 1.32233C66.8259 0.34602 65.243 0.34602 64.2667 1.32233C63.2903 2.29864 63.2903 3.88155 64.2667 4.85786L78.4088 19L64.2667 33.1421C63.2903 34.1184 63.2903 35.7014 64.2667 36.6777C65.243 37.654 66.8259 37.654 67.8022 36.6777L83.7121 20.7678ZM3.28027 21.5L81.9443 21.5L81.9443 16.5L3.28027 16.5L3.28027 21.5Z" fill="#4378FF"/>
</svg>
