<svg width="85" height="38" viewBox="0 0 85 38" fill="none" xmlns="http://www.w3.org/2000/svg">
<path d="M3.20215 16.5C1.82144 16.5 0.702148 17.6193 0.702148 19C0.702148 20.3807 1.82144 21.5 3.20215 21.5L3.20215 16.5ZM83.634 20.7678C84.6103 19.7915 84.6103 18.2085 83.634 17.2322L67.7241 1.32233C66.7478 0.34602 65.1648 0.34602 64.1885 1.32233C63.2122 2.29864 63.2122 3.88155 64.1885 4.85786L78.3307 19L64.1885 33.1421C63.2122 34.1184 63.2122 35.7014 64.1885 36.6777C65.1648 37.654 66.7478 37.654 67.7241 36.6777L83.634 20.7678ZM3.20215 21.5L81.8662 21.5L81.8662 16.5L3.20215 16.5L3.20215 21.5Z" fill="#FFDD55"/>
</svg>
